<svg width="112" height="21" viewBox="0 0 112 21" fill="none" xmlns="http://www.w3.org/2000/svg">
<path d="M0.717773 0.883789H2.72461V9.58496H5.24414C5.37109 3.56934 6.78223 0.561523 9.47754 0.561523C12.2998 0.561523 13.7109 3.8623 13.7109 10.4639C13.7109 17.0459 12.2998 20.3369 9.47754 20.3369C6.78223 20.3369 5.37109 17.3242 5.24414 11.2988H2.72461V20H0.717773V0.883789ZM9.47754 18.623C9.93652 18.623 10.3125 18.4229 10.6055 18.0225C10.8984 17.6221 11.123 17.0605 11.2793 16.3379C11.4355 15.6152 11.543 14.7559 11.6016 13.7598C11.6699 12.7637 11.7041 11.665 11.7041 10.4639C11.7041 9.2627 11.6699 8.15918 11.6016 7.15332C11.543 6.1377 11.4355 5.27344 11.2793 4.56055C11.123 3.83789 10.8984 3.27637 10.6055 2.87598C10.3125 2.47559 9.93652 2.27539 9.47754 2.27539C9.01855 2.27539 8.64258 2.47559 8.34961 2.87598C8.06641 3.27637 7.8418 3.83789 7.67578 4.56055C7.51953 5.27344 7.41211 6.1377 7.35352 7.15332C7.29492 8.15918 7.26562 9.2627 7.26562 10.4639C7.26562 11.665 7.29492 12.7637 7.35352 13.7598C7.41211 14.7559 7.51953 15.6152 7.67578 16.3379C7.8418 17.0605 8.06641 17.6221 8.34961 18.0225C8.64258 18.4229 9.01855 18.623 9.47754 18.623ZM30.3809 10.4053C30.3809 11.3623 30.2295 12.251 29.9268 13.0713C29.6338 13.8916 29.2139 14.6143 28.667 15.2393C28.1299 15.8545 27.4805 16.3574 26.7188 16.748C25.9668 17.1387 25.1318 17.3828 24.2139 17.4805V20H22.1924V17.4512C21.2744 17.3535 20.4395 17.1094 19.6875 16.7188C18.9453 16.3281 18.3008 15.8301 17.7539 15.2246C17.2168 14.6094 16.8018 13.8916 16.5088 13.0713C16.2256 12.251 16.084 11.3623 16.084 10.4053C16.084 9.43848 16.2256 8.54492 16.5088 7.72461C16.8018 6.9043 17.2168 6.18164 17.7539 5.55664C18.3008 4.92188 18.9453 4.41406 19.6875 4.0332C20.4395 3.64258 21.2744 3.38379 22.1924 3.25684V0.883789H24.2139V3.25684C25.1318 3.35449 25.9668 3.60352 26.7188 4.00391C27.4805 4.4043 28.1299 4.91699 28.667 5.54199C29.2139 6.15723 29.6338 6.87988 29.9268 7.70996C30.2295 8.54004 30.3809 9.43848 30.3809 10.4053ZM28.374 10.4053C28.374 9.72168 28.2764 9.07715 28.0811 8.47168C27.8955 7.85645 27.627 7.30957 27.2754 6.83105C26.9336 6.35254 26.499 5.95703 25.9717 5.64453C25.4541 5.33203 24.8682 5.11719 24.2139 5V15.708C25.5322 15.4932 26.5527 14.9023 27.2754 13.9355C28.0078 12.959 28.374 11.7822 28.374 10.4053ZM18.0908 10.4053C18.0908 11.7822 18.4424 12.959 19.1455 13.9355C19.8584 14.9023 20.874 15.4932 22.1924 15.708V5C21.5381 5.11719 20.9521 5.33691 20.4346 5.65918C19.9268 5.98145 19.4971 6.37695 19.1455 6.8457C18.8037 7.31445 18.54 7.85645 18.3545 8.47168C18.1787 9.07715 18.0908 9.72168 18.0908 10.4053ZM46.8311 0.883789L39.4482 17.9932C39.0674 18.9502 38.5303 19.5801 37.8369 19.8828C37.1436 20.1855 36.377 20.3369 35.5371 20.3369C34.5996 20.3369 33.6621 20.166 32.7246 19.8242L33.1201 18.0811C33.5791 18.2764 34.0283 18.418 34.4678 18.5059C34.9072 18.584 35.2637 18.623 35.5371 18.623C36.2012 18.623 36.6553 18.4619 36.8994 18.1396C37.1533 17.8174 37.373 17.4365 37.5586 16.9971L38.3936 14.9316L32.2998 0.883789H34.6729L39.5947 12.8369L44.4287 0.883789H46.8311ZM67.0312 10.4639C67.0312 11.8799 67.2021 13.208 67.5439 14.4482L76.4941 5C76.0254 4.12109 75.4443 3.44727 74.751 2.97852C74.0674 2.50977 73.2666 2.27539 72.3486 2.27539C70.6299 2.27539 69.3115 3.00781 68.3936 4.47266C67.4854 5.92773 67.0312 7.9248 67.0312 10.4639ZM68.2324 16.0742C69.1992 17.793 70.5713 18.6523 72.3486 18.6523C74.0283 18.6523 75.332 17.9248 76.2598 16.4697C77.1875 15.0049 77.6514 13.0029 77.6514 10.4639C77.6514 9.76074 77.6074 9.09668 77.5195 8.47168C77.4316 7.83691 77.3096 7.23145 77.1533 6.65527L68.2324 16.0742ZM65.0244 10.4639C65.0244 9.18457 65.1611 7.94922 65.4346 6.75781C65.708 5.56641 66.1328 4.51172 66.709 3.59375C67.2852 2.67578 68.0371 1.94336 68.9648 1.39648C69.9023 0.839844 71.0303 0.561523 72.3486 0.561523C73.667 0.561523 74.79 0.839844 75.7178 1.39648C76.6553 1.94336 77.417 2.67578 78.0029 3.59375C78.5889 4.51172 79.0137 5.56641 79.2773 6.75781C79.541 7.94922 79.6729 9.18457 79.6729 10.4639C79.6729 11.7432 79.541 12.9785 79.2773 14.1699C79.0137 15.3613 78.5938 16.4111 78.0176 17.3193C77.4414 18.2275 76.6846 18.96 75.7471 19.5166C74.8193 20.0635 73.6865 20.3369 72.3486 20.3369C71.0107 20.3369 69.873 20.0635 68.9355 19.5166C68.0078 18.96 67.251 18.2275 66.665 17.3193C66.0889 16.4111 65.6738 15.3613 65.4199 14.1699C65.1562 12.9785 65.0244 11.7432 65.0244 10.4639ZM94.8193 5.83496C94.8193 6.3623 94.7705 6.83594 94.6729 7.25586C94.585 7.67578 94.4189 8.10059 94.1748 8.53027C93.9404 8.95996 93.6279 9.41406 93.2373 9.89258C92.8467 10.3711 92.3535 10.918 91.7578 11.5332L85.0928 18.2861H93.1641V14.5361H94.8779V20H82.4561V18.2275L89.8975 10.6689C90.2783 10.2881 90.6396 9.90723 90.9814 9.52637C91.333 9.14551 91.6455 8.75977 91.9189 8.36914C92.1924 7.97852 92.4072 7.57324 92.5635 7.15332C92.7197 6.7334 92.7979 6.29395 92.7979 5.83496C92.7979 4.66309 92.4072 3.7793 91.626 3.18359C90.8545 2.57813 89.8975 2.27539 88.7549 2.27539C87.1533 2.27539 85.9424 2.71973 85.1221 3.6084C84.3018 4.49707 83.8916 5.78125 83.8916 7.46094H82.0312C82.0312 5.30273 82.6074 3.61328 83.7598 2.39258C84.9121 1.17188 86.5771 0.561523 88.7549 0.561523C89.5752 0.561523 90.3467 0.683594 91.0693 0.927734C91.8018 1.16211 92.4463 1.50391 93.0029 1.95312C93.5693 2.40234 94.0137 2.9541 94.3359 3.6084C94.6582 4.25293 94.8193 4.99512 94.8193 5.83496ZM111.914 20H103.726V18.2861H106.816V14.5361H98.2617V12.793L106.274 0.883789H108.823V12.793H111.914V14.5361H108.823V18.2861H111.914V20ZM106.816 12.793V3.25684L100.386 12.793H106.816Z" fill="black"/>
<path d="M62.0654 5.83496C62.0654 6.3623 62.0166 6.83594 61.9189 7.25586C61.8311 7.67578 61.665 8.10059 61.4209 8.53027C61.1865 8.95996 60.874 9.41406 60.4834 9.89258C60.0928 10.3711 59.5996 10.918 59.0039 11.5332L52.3389 18.2861H60.4102V14.5361H62.124V20H49.7021V18.2275L57.1436 10.6689C57.5244 10.2881 57.8857 9.90723 58.2275 9.52637C58.5791 9.14551 58.8916 8.75977 59.165 8.36914C59.4385 7.97852 59.6533 7.57324 59.8096 7.15332C59.9658 6.7334 60.0439 6.29395 60.0439 5.83496C60.0439 4.66309 59.6533 3.7793 58.8721 3.18359C58.1006 2.57813 57.1436 2.27539 56.001 2.27539C54.3994 2.27539 53.1885 2.71973 52.3682 3.6084C51.5479 4.49707 51.1377 5.78125 51.1377 7.46094H49.2773C49.2773 5.30273 49.8535 3.61328 51.0059 2.39258C52.1582 1.17188 53.8232 0.561523 56.001 0.561523C56.8213 0.561523 57.5928 0.683594 58.3154 0.927734C59.0479 1.16211 59.6924 1.50391 60.249 1.95312C60.8154 2.40234 61.2598 2.9541 61.582 3.6084C61.9043 4.25293 62.0654 4.99512 62.0654 5.83496Z" fill="#B28BF1"/>
</svg>
