<svg width="86" height="51" viewBox="0 0 86 51" fill="none" xmlns="http://www.w3.org/2000/svg">
<path d="M3.00684 18.877C3.15332 20.3223 3.68066 21.4746 4.58887 22.334C5.49707 23.1934 6.67871 23.623 8.13379 23.623C9.15918 23.623 10.0723 23.4131 10.873 22.9932C11.6738 22.5732 12.2744 22.0508 12.6748 21.4258L14.0811 22.3926C13.3975 23.3496 12.582 24.082 11.6348 24.5898C10.6875 25.0879 9.52051 25.3369 8.13379 25.3369C7.0791 25.3369 6.1123 25.1611 5.2334 24.8096C4.35449 24.458 3.59277 23.9697 2.94824 23.3447C2.31348 22.71 1.82031 21.958 1.46875 21.0889C1.11719 20.2197 0.941406 19.2529 0.941406 18.1885C0.941406 17.1533 1.09766 16.2012 1.41016 15.332C1.73242 14.4531 2.19141 13.6963 2.78711 13.0615C3.39258 12.417 4.125 11.9189 4.98438 11.5674C5.84375 11.2061 6.80566 11.0254 7.87012 11.0254C9.03223 11.0254 10.0479 11.2207 10.917 11.6113C11.7861 12.002 12.5088 12.5439 13.085 13.2373C13.6709 13.9209 14.1006 14.7412 14.374 15.6982C14.6572 16.6553 14.7988 17.7148 14.7988 18.877H3.00684ZM12.6748 17.1631C12.4502 15.6689 11.9082 14.5557 11.0488 13.8232C10.1895 13.0908 9.12988 12.7246 7.87012 12.7246C7.22559 12.7246 6.62988 12.832 6.08301 13.0469C5.53613 13.252 5.05273 13.5498 4.63281 13.9404C4.21289 14.3311 3.86133 14.8047 3.57812 15.3613C3.29492 15.9082 3.11426 16.5088 3.03613 17.1631H12.6748ZM32.2293 25H30.2225V15.1855C30.2225 14.4043 30.0857 13.7988 29.8123 13.3691C29.5389 12.9395 29.1434 12.7246 28.6258 12.7246C27.8641 12.7246 27.3025 13.125 26.9412 13.9258C26.5896 14.7266 26.4139 15.8496 26.4139 17.2949V25H24.3924V15.1855C24.3924 14.4043 24.2508 13.7988 23.9676 13.3691C23.6941 12.9395 23.2986 12.7246 22.7811 12.7246C22.3025 12.7246 21.9217 12.8662 21.6385 13.1494C21.3553 13.4326 21.1307 13.7939 20.9646 14.2334C20.8084 14.6729 20.7059 15.1611 20.657 15.6982C20.6082 16.2354 20.5838 16.7676 20.5838 17.2949V25H18.577V11.3477H20.5838V13.3252C21.0037 11.792 21.9168 11.0254 23.323 11.0254C24.6609 11.0254 25.5691 11.6943 26.0477 13.0322C26.7117 11.6943 27.6492 11.0254 28.8602 11.0254C30.0223 11.0254 30.8719 11.3721 31.409 12.0654C31.9559 12.749 32.2293 13.7891 32.2293 15.1855V25ZM60.7193 8.62305H57.9947V5.88379H60.7193V8.62305ZM63.4439 25H55.2555V23.2861H58.3463V13.0615H55.2555V11.3477H60.3678V23.2861H63.4439V25ZM79.8209 25H71.6324V23.2861H74.7232V7.59766H71.6324V5.88379H76.7447V23.2861H79.8209V25Z" fill="black"/>
<path d="M50.3189 14.9805C50.3189 15.6445 50.2652 16.3184 50.1578 17.002C50.0504 17.6855 49.8648 18.3057 49.6012 18.8623C49.3375 19.4092 48.9859 19.8584 48.5465 20.21C48.107 20.5615 47.5602 20.7373 46.9059 20.7373C46.6227 20.7373 46.3492 20.6885 46.0855 20.5908C45.8219 20.4932 45.5875 20.3516 45.3824 20.166C45.1773 19.9805 45.0113 19.7656 44.8844 19.5215C44.7672 19.2676 44.7086 18.9844 44.7086 18.6719V18.2617C44.4938 18.9941 44.1568 19.5898 43.6979 20.0488C43.2389 20.5078 42.7066 20.7373 42.1012 20.7373C41.4566 20.7373 40.9195 20.5957 40.4898 20.3125C40.0602 20.0293 39.7135 19.6533 39.4498 19.1846C39.1959 18.7158 39.0152 18.1836 38.9078 17.5879C38.8004 16.9922 38.7467 16.3818 38.7467 15.7568C38.7467 15.0342 38.8297 14.3457 38.9957 13.6914C39.1617 13.0273 39.4107 12.4463 39.7428 11.9482C40.0748 11.4404 40.485 11.04 40.9732 10.7471C41.4713 10.4443 42.0475 10.293 42.7018 10.293C43.0436 10.293 43.4049 10.3809 43.7857 10.5566C44.1666 10.7227 44.4742 10.9863 44.7086 11.3477V10.5713H46.6275V18.2617C46.6275 18.5742 46.6861 18.7988 46.8033 18.9355C46.9205 19.0723 47.0914 19.1406 47.316 19.1406C47.5895 19.1406 47.8238 19.0088 48.0191 18.7451C48.2145 18.4814 48.3707 18.1494 48.4879 17.749C48.6051 17.3389 48.6881 16.8896 48.7369 16.4014C48.7955 15.9131 48.8248 15.4395 48.8248 14.9805C48.8248 14.3066 48.7809 13.6377 48.693 12.9736C48.6148 12.2998 48.4781 11.665 48.2828 11.0693C48.0973 10.4639 47.8531 9.90723 47.5504 9.39941C47.2477 8.88184 46.8766 8.4375 46.4371 8.06641C46.0074 7.68555 45.5045 7.39258 44.9283 7.1875C44.3619 6.97266 43.7174 6.86523 42.9947 6.86523C41.8912 6.86523 40.9684 7.09961 40.2262 7.56836C39.484 8.03711 38.8834 8.66699 38.4244 9.45801C37.9752 10.249 37.6529 11.1621 37.4576 12.1973C37.2623 13.2324 37.1646 14.3213 37.1646 15.4639C37.1646 16.5869 37.2623 17.666 37.4576 18.7012C37.6529 19.7266 37.9752 20.6348 38.4244 21.4258C38.8834 22.2168 39.484 22.8467 40.2262 23.3154C40.9781 23.7842 41.901 24.0186 42.9947 24.0186C43.7955 24.0186 44.5133 23.877 45.148 23.5938C45.7828 23.3105 46.359 22.9297 46.8766 22.4512L47.7408 23.4473C46.4908 24.707 44.9088 25.3369 42.9947 25.3369C42.0963 25.3369 41.2906 25.2148 40.5777 24.9707C39.8746 24.7168 39.2496 24.3652 38.7027 23.916C38.1656 23.4668 37.7018 22.9346 37.3111 22.3193C36.9303 21.7041 36.6178 21.0303 36.3736 20.2979C36.1295 19.5654 35.9537 18.7891 35.8463 17.9688C35.7291 17.1484 35.6705 16.3135 35.6705 15.4639C35.6705 14.5947 35.7291 13.75 35.8463 12.9297C35.9635 12.0996 36.1441 11.3184 36.3883 10.5859C36.6324 9.85352 36.9449 9.17969 37.3258 8.56445C37.7164 7.94922 38.1852 7.42188 38.732 6.98242C39.2789 6.5332 39.9039 6.18652 40.607 5.94238C41.3102 5.68848 42.1061 5.56152 42.9947 5.56152C44.3131 5.56152 45.4361 5.83496 46.3639 6.38184C47.3014 6.91895 48.0631 7.63184 48.649 8.52051C49.235 9.40918 49.6598 10.415 49.9234 11.5381C50.1871 12.6611 50.3189 13.8086 50.3189 14.9805ZM44.7086 13.1641C44.484 12.6855 44.2154 12.3535 43.9029 12.168C43.6002 11.9727 43.2633 11.875 42.8922 11.875C42.5211 11.875 42.1988 11.9873 41.9254 12.2119C41.6617 12.4268 41.442 12.7197 41.2662 13.0908C41.0904 13.4521 40.9586 13.8672 40.8707 14.3359C40.7926 14.7949 40.7535 15.2637 40.7535 15.7422C40.7535 16.8066 40.8902 17.6074 41.1637 18.1445C41.4469 18.6816 41.8424 18.9502 42.3502 18.9502C42.7115 18.9502 43.0387 18.8428 43.3316 18.6279C43.6246 18.4033 43.8736 18.1152 44.0787 17.7637C44.2838 17.4023 44.44 17.002 44.5475 16.5625C44.6549 16.1133 44.7086 15.6689 44.7086 15.2295V13.1641Z" fill="#B28BF1"/>
<path d="M15.0039 37.97C15.0039 39.0344 14.833 40.0012 14.4912 40.8704C14.1592 41.7395 13.6758 42.4866 13.041 43.1116C12.416 43.7268 11.6641 44.2102 10.7852 44.5618C9.90625 44.9133 8.9248 45.0891 7.84082 45.0891C6.77637 45.0891 5.80469 44.9133 4.92578 44.5618C4.04688 44.2102 3.29004 43.7268 2.65527 43.1116C2.03027 42.4866 1.54688 41.7395 1.20508 40.8704C0.873047 40.0012 0.707031 39.0344 0.707031 37.97C0.707031 36.9348 0.873047 35.9729 1.20508 35.0842C1.54688 34.1858 2.03027 33.4241 2.65527 32.7991C3.29004 32.1643 4.04688 31.6711 4.92578 31.3196C5.80469 30.9583 6.77637 30.7776 7.84082 30.7776C8.9248 30.7776 9.90625 30.9583 10.7852 31.3196C11.6641 31.6711 12.416 32.1643 13.041 32.7991C13.6758 33.4241 14.1592 34.1858 14.4912 35.0842C14.833 35.9729 15.0039 36.9348 15.0039 37.97ZM12.9971 37.97C12.9971 37.1887 12.8799 36.4709 12.6455 35.8167C12.4209 35.1526 12.084 34.5715 11.6348 34.0735C11.1855 33.5754 10.6387 33.1848 9.99414 32.9016C9.35938 32.6184 8.6416 32.4768 7.84082 32.4768C7.04004 32.4768 6.31738 32.6184 5.67285 32.9016C5.03809 33.1848 4.50098 33.5754 4.06152 34.0735C3.62207 34.5715 3.28516 35.1526 3.05078 35.8167C2.82617 36.4709 2.71387 37.1887 2.71387 37.97C2.71387 38.7512 2.82617 39.4739 3.05078 40.1379C3.28516 40.7922 3.62207 41.3586 4.06152 41.8372C4.50098 42.3157 5.03809 42.6917 5.67285 42.9651C6.31738 43.2385 7.04004 43.3752 7.84082 43.3752C8.6416 43.3752 9.35938 43.2385 9.99414 42.9651C10.6387 42.6917 11.1855 42.3157 11.6348 41.8372C12.084 41.3586 12.4209 40.7922 12.6455 40.1379C12.8799 39.4739 12.9971 38.7512 12.9971 37.97ZM31.0293 37.9407C31.0293 39.0051 30.8633 39.9719 30.5312 40.8411C30.1992 41.7102 29.7305 42.4622 29.125 43.0969C28.5293 43.7219 27.8066 44.2102 26.957 44.5618C26.1074 44.9133 25.1553 45.0891 24.1006 45.0891C23.3779 45.0891 22.6748 44.9573 21.9912 44.6936C21.3174 44.4299 20.6875 44.0393 20.1016 43.5217V50.2161H18.0947V31.0999H20.1016V32.3596C21.3418 31.3049 22.6748 30.7776 24.1006 30.7776C25.1553 30.7776 26.1074 30.9534 26.957 31.3049C27.8066 31.6467 28.5293 32.1399 29.125 32.7844C29.7305 33.4192 30.1992 34.1809 30.5312 35.0696C30.8633 35.9485 31.0293 36.9055 31.0293 37.9407ZM29.0225 37.9407C29.0225 37.179 28.915 36.4661 28.7002 35.802C28.4951 35.1282 28.1826 34.5471 27.7627 34.0588C27.3428 33.5706 26.8252 33.1848 26.21 32.9016C25.6045 32.6184 24.9014 32.4768 24.1006 32.4768C23.3389 32.4768 22.626 32.6184 21.9619 32.9016C21.3076 33.1848 20.6875 33.6438 20.1016 34.2786V41.6028C20.6875 42.2375 21.3076 42.6917 21.9619 42.9651C22.626 43.2385 23.3389 43.3752 24.1006 43.3752C24.9014 43.3752 25.6045 43.2336 26.21 42.9504C26.8252 42.6672 27.3428 42.2815 27.7627 41.7932C28.1826 41.3049 28.4951 40.7336 28.7002 40.0793C28.915 39.4153 29.0225 38.7024 29.0225 37.9407ZM35.7607 38.6292C35.9072 40.0745 36.4346 41.2268 37.3428 42.0862C38.251 42.9456 39.4326 43.3752 40.8877 43.3752C41.9131 43.3752 42.8262 43.1653 43.627 42.7454C44.4277 42.3254 45.0283 41.803 45.4287 41.178L46.835 42.1448C46.1514 43.1018 45.3359 43.8342 44.3887 44.342C43.4414 44.8401 42.2744 45.0891 40.8877 45.0891C39.833 45.0891 38.8662 44.9133 37.9873 44.5618C37.1084 44.2102 36.3467 43.7219 35.7021 43.0969C35.0674 42.4622 34.5742 41.7102 34.2227 40.8411C33.8711 39.9719 33.6953 39.0051 33.6953 37.9407C33.6953 36.9055 33.8516 35.9534 34.1641 35.0842C34.4863 34.2053 34.9453 33.4485 35.541 32.8137C36.1465 32.1692 36.8789 31.6711 37.7383 31.3196C38.5977 30.9583 39.5596 30.7776 40.624 30.7776C41.7861 30.7776 42.8018 30.9729 43.6709 31.3635C44.54 31.7542 45.2627 32.2961 45.8389 32.9895C46.4248 33.6731 46.8545 34.4934 47.1279 35.4504C47.4111 36.4075 47.5527 37.467 47.5527 38.6292H35.7607ZM45.4287 36.9153C45.2041 35.4211 44.6621 34.3079 43.8027 33.5754C42.9434 32.843 41.8838 32.4768 40.624 32.4768C39.9795 32.4768 39.3838 32.5842 38.8369 32.7991C38.29 33.0042 37.8066 33.302 37.3867 33.6926C36.9668 34.0833 36.6152 34.5569 36.332 35.1135C36.0488 35.6604 35.8682 36.261 35.79 36.9153H45.4287ZM63.0361 33.0188C62.3135 32.6575 61.4541 32.4768 60.458 32.4768C59.6377 32.4768 58.9053 32.6526 58.2607 33.0042C57.6162 33.3557 57.0693 33.8196 56.6201 34.3958C56.1709 34.9622 55.8242 35.6165 55.5801 36.3586C55.3457 37.0911 55.2285 37.8479 55.2285 38.6292V43.0383H58.3193V44.7522H50.1309V43.0383H53.2217V32.8137H50.1309V31.0999H55.2285V34.5276C56.1465 32.0276 57.8896 30.7776 60.458 30.7776C61.1514 30.7776 61.752 30.8215 62.2598 30.9094C62.7773 30.9973 63.2559 31.1536 63.6953 31.3782L63.0361 33.0188ZM66.4785 41.0608C66.4785 40.2014 66.6934 39.4836 67.123 38.9075C67.5527 38.3215 68.1143 37.8625 68.8076 37.5305C69.5107 37.1887 70.3115 36.9446 71.21 36.7981C72.1182 36.6418 73.041 36.5637 73.9785 36.5637C74.3398 36.5637 74.6621 36.5686 74.9453 36.5784C75.2383 36.5881 75.5117 36.6028 75.7656 36.6223C76.0293 36.6418 76.293 36.6663 76.5566 36.6956C76.8203 36.7249 77.1084 36.759 77.4209 36.7981V35.8167C77.4209 35.1526 77.2744 34.6057 76.9814 34.176C76.6982 33.7463 76.3467 33.4094 75.9268 33.1653C75.5068 32.9114 75.0674 32.7356 74.6084 32.6379C74.1494 32.5305 73.7588 32.4768 73.4365 32.4768C72.4209 32.4768 71.4834 32.6135 70.624 32.887C69.7646 33.1604 68.9639 33.5266 68.2217 33.9856L67.3135 32.4768C68.1338 31.9788 69.0518 31.5735 70.0674 31.261C71.0928 30.9387 72.2158 30.7776 73.4365 30.7776C74.1787 30.7776 74.9062 30.8752 75.6191 31.0706C76.3418 31.2561 76.9863 31.5491 77.5527 31.9495C78.1289 32.3401 78.5879 32.8577 78.9297 33.5022C79.2715 34.1467 79.4424 34.9182 79.4424 35.8167V44.7522H77.4209V42.467C77.0693 42.9065 76.6689 43.2922 76.2197 43.6243C75.7803 43.9563 75.3164 44.2297 74.8281 44.4446C74.3398 44.6497 73.8516 44.8059 73.3633 44.9133C72.875 45.0305 72.4111 45.0891 71.9717 45.0891C70.165 45.0891 68.7979 44.7424 67.8701 44.0491C66.9424 43.3557 66.4785 42.3596 66.4785 41.0608ZM71.9717 43.3752C72.8115 43.3752 73.5635 43.2532 74.2275 43.009C74.9014 42.7551 75.4727 42.4426 75.9414 42.0715C76.4102 41.7004 76.7715 41.3049 77.0254 40.885C77.2891 40.4651 77.4209 40.0842 77.4209 39.7424V38.4534C76.7666 38.3557 76.1367 38.302 75.5312 38.2922C74.9355 38.2825 74.418 38.2776 73.9785 38.2776C73.2559 38.2776 72.5576 38.3264 71.8838 38.4241C71.2197 38.5217 70.6387 38.6829 70.1406 38.9075C69.6426 39.1223 69.2422 39.4055 68.9395 39.7571C68.6367 40.1086 68.4854 40.5432 68.4854 41.0608C68.4854 41.637 68.7637 42.1692 69.3203 42.6575C69.8867 43.136 70.7705 43.3752 71.9717 43.3752Z" fill="black"/>
</svg>
